<svg width="224" height="259" viewBox="0 0 224 259" fill="none" xmlns="http://www.w3.org/2000/svg">
<ellipse cx="112" cy="146" rx="112" ry="113" fill="#0E0101"/>
<path d="M126.275 85.25C126.275 88.6333 125.75 91.6667 124.7 94.35C123.767 97.0333 122.425 99.425 120.675 101.525C118.925 103.625 116.883 105.492 114.55 107.125C112.217 108.758 109.65 110.275 106.85 111.675C108.133 112.142 109.65 112.9 111.4 113.95C113.15 114.883 114.842 116.225 116.475 117.975C118.108 119.725 119.45 122 120.5 124.8C121.667 127.483 122.25 130.808 122.25 134.775C122.25 140.025 121.142 144.867 118.925 149.3C116.708 153.733 113.383 157.583 108.95 160.85C104.633 164 99.2667 166.508 92.85 168.375C86.55 170.125 79.2583 171 70.975 171H19L42.625 59.875H88.65C93.2 59.875 97.6917 60.225 102.125 60.925C106.675 61.5083 110.7 62.7333 114.2 64.6C117.817 66.4667 120.733 69.0917 122.95 72.475C125.167 75.7417 126.275 80 126.275 85.25ZM78.675 106.425C81.2417 106.425 83.4 105.667 85.15 104.15C87.0167 102.633 88.5333 100.767 89.7 98.55C90.8667 96.2167 91.7417 93.7667 92.325 91.2C92.9083 88.5167 93.2 86.125 93.2 84.025C93.2 80.6417 92.3833 77.7833 90.75 75.45C89.2333 73 86.7833 71.775 83.4 71.775H78.15L70.625 106.425H78.675ZM66.075 159.975C69.575 159.975 72.4917 158.983 74.825 157C77.1583 155.017 79.0833 152.567 80.6 149.65C82.1167 146.733 83.1667 143.7 83.75 140.55C84.45 137.283 84.8 134.425 84.8 131.975C84.8 127.892 83.925 124.683 82.175 122.35C80.5417 119.9 77.8583 118.675 74.125 118.675H67.65L59.075 159.975H66.075Z" fill="white"/>
<path d="M196.95 213H156L153.55 185.175H121.175L108.75 213H91.775L143.4 101.875H184.875L196.95 213ZM126.95 172.4H152.325L148.3 124.8L126.95 172.4Z" fill="white"/>
</svg>
